<mxfile host="app.diagrams.net" modified="2024-05-23T08:40:13.167Z" agent="Mozilla/5.0 (Windows NT 10.0; Win64; x64) AppleWebKit/537.36 (KHTML, like Gecko) Chrome/124.0.0.0 Safari/537.36" etag="0pk2RNdIhOASx6N7Nc6b" version="24.4.6" type="device">
  <diagram name="Page-1" id="hulA7HbLjxlJ7WIDWfl5">
    <mxGraphModel dx="1434" dy="772" grid="1" gridSize="10" guides="1" tooltips="1" connect="1" arrows="1" fold="1" page="1" pageScale="1" pageWidth="850" pageHeight="1100" math="0" shadow="0">
      <root>
        <mxCell id="0" />
        <mxCell id="1" parent="0" />
        <mxCell id="lwTxpfjI6xgQUl9Y8i18-36" style="edgeStyle=orthogonalEdgeStyle;rounded=0;orthogonalLoop=1;jettySize=auto;html=1;exitX=0.5;exitY=1;exitDx=0;exitDy=0;" parent="1" edge="1">
          <mxGeometry relative="1" as="geometry">
            <mxPoint x="312" y="235" as="sourcePoint" />
            <mxPoint x="312" y="235" as="targetPoint" />
          </mxGeometry>
        </mxCell>
        <mxCell id="lwTxpfjI6xgQUl9Y8i18-48" value="Moore FSM of hwdbg&#39;s Synchronizer Module" style="text;html=1;align=center;verticalAlign=middle;whiteSpace=wrap;rounded=0;fontStyle=1;fontSize=35;" parent="1" vertex="1">
          <mxGeometry x="362" y="241" width="415" height="30" as="geometry" />
        </mxCell>
        <mxCell id="UarH3_EtGsYHS9zNdw7b-11" style="edgeStyle=orthogonalEdgeStyle;rounded=0;orthogonalLoop=1;jettySize=auto;html=1;exitX=1;exitY=0;exitDx=0;exitDy=0;entryX=0;entryY=0.5;entryDx=0;entryDy=0;curved=1;" parent="1" source="UarH3_EtGsYHS9zNdw7b-4" target="UarH3_EtGsYHS9zNdw7b-5" edge="1">
          <mxGeometry relative="1" as="geometry">
            <Array as="points">
              <mxPoint x="189" y="100" />
            </Array>
          </mxGeometry>
        </mxCell>
        <mxCell id="UarH3_EtGsYHS9zNdw7b-21" style="edgeStyle=orthogonalEdgeStyle;rounded=0;orthogonalLoop=1;jettySize=auto;html=1;exitX=1;exitY=1;exitDx=0;exitDy=0;entryX=0;entryY=0;entryDx=0;entryDy=0;curved=1;" parent="1" source="UarH3_EtGsYHS9zNdw7b-4" target="UarH3_EtGsYHS9zNdw7b-9" edge="1">
          <mxGeometry relative="1" as="geometry" />
        </mxCell>
        <mxCell id="UarH3_EtGsYHS9zNdw7b-4" value="&lt;i&gt;sIdle&lt;/i&gt;&lt;div&gt;-----------------------------------&lt;/div&gt;&lt;div&gt;&lt;div&gt;wrEna = 0&lt;br&gt;&lt;/div&gt;&lt;div&gt;rdWrAddr = 0&lt;br&gt;&lt;/div&gt;&lt;div&gt;wrData = 0&lt;br&gt;&lt;/div&gt;&lt;div&gt;rdData = 0&lt;/div&gt;&lt;/div&gt;&lt;div&gt;&lt;br&gt;&lt;/div&gt;&lt;div&gt;&lt;br&gt;&lt;/div&gt;" style="ellipse;whiteSpace=wrap;html=1;" parent="1" vertex="1">
          <mxGeometry x="52" y="165" width="160" height="150" as="geometry" />
        </mxCell>
        <mxCell id="UarH3_EtGsYHS9zNdw7b-5" value="&lt;div&gt;&lt;i&gt;sReceiver&lt;/i&gt;&lt;/div&gt;&lt;div&gt;-------------------------------------&lt;/div&gt;&lt;div&gt;wrEna = 0&lt;br&gt;&lt;/div&gt;&lt;div&gt;rdWrAddr = (requested addr)&lt;br&gt;&lt;/div&gt;&lt;div&gt;wrData = 0&lt;br&gt;&lt;/div&gt;&lt;div&gt;rdData = (Data to Read)&lt;/div&gt;&lt;div&gt;&lt;br&gt;&lt;/div&gt;" style="ellipse;whiteSpace=wrap;html=1;" parent="1" vertex="1">
          <mxGeometry x="414" y="25" width="160" height="150" as="geometry" />
        </mxCell>
        <mxCell id="UarH3_EtGsYHS9zNdw7b-6" value="" style="endArrow=classic;html=1;rounded=0;exitX=0.25;exitY=1;exitDx=0;exitDy=0;entryX=0;entryY=0;entryDx=0;entryDy=0;" parent="1" source="UarH3_EtGsYHS9zNdw7b-7" edge="1">
          <mxGeometry width="50" height="50" relative="1" as="geometry">
            <mxPoint x="58" y="85" as="sourcePoint" />
            <mxPoint x="58.431457505076196" y="206.96699141100885" as="targetPoint" />
            <Array as="points" />
          </mxGeometry>
        </mxCell>
        <mxCell id="UarH3_EtGsYHS9zNdw7b-7" value="&lt;b&gt;Reset&lt;/b&gt;" style="text;html=1;align=left;verticalAlign=middle;whiteSpace=wrap;rounded=0;" parent="1" vertex="1">
          <mxGeometry x="44" y="25" width="60" height="30" as="geometry" />
        </mxCell>
        <mxCell id="UarH3_EtGsYHS9zNdw7b-8" value="&lt;b&gt;plInSignal = 1&lt;/b&gt;" style="text;html=1;align=center;verticalAlign=middle;whiteSpace=wrap;rounded=0;rotation=0;fontSize=11;" parent="1" vertex="1">
          <mxGeometry x="164" y="85" width="140" height="30" as="geometry" />
        </mxCell>
        <mxCell id="UarH3_EtGsYHS9zNdw7b-22" style="edgeStyle=orthogonalEdgeStyle;rounded=0;orthogonalLoop=1;jettySize=auto;html=1;exitX=0;exitY=0.5;exitDx=0;exitDy=0;entryX=0.5;entryY=1;entryDx=0;entryDy=0;curved=1;" parent="1" source="UarH3_EtGsYHS9zNdw7b-9" target="UarH3_EtGsYHS9zNdw7b-4" edge="1">
          <mxGeometry relative="1" as="geometry" />
        </mxCell>
        <mxCell id="UarH3_EtGsYHS9zNdw7b-9" value="&lt;div&gt;&lt;i&gt;sSender&lt;/i&gt;&lt;/div&gt;&lt;div&gt;-------------------------------------&lt;/div&gt;&lt;div&gt;&lt;div&gt;&lt;div&gt;wrEna = (sender value)&lt;br&gt;&lt;/div&gt;&lt;/div&gt;&lt;/div&gt;&lt;div&gt;rdWrAddr = (requested addr)&lt;br&gt;&lt;/div&gt;&lt;div&gt;rdData = 0&lt;/div&gt;&lt;div&gt;wrData = (Data to Write)&lt;/div&gt;&lt;div&gt;&lt;br&gt;&lt;/div&gt;" style="ellipse;whiteSpace=wrap;html=1;" parent="1" vertex="1">
          <mxGeometry x="414" y="345" width="160" height="150" as="geometry" />
        </mxCell>
        <mxCell id="UarH3_EtGsYHS9zNdw7b-12" style="edgeStyle=orthogonalEdgeStyle;rounded=0;orthogonalLoop=1;jettySize=auto;html=1;exitX=0;exitY=1;exitDx=0;exitDy=0;entryX=0.969;entryY=0.34;entryDx=0;entryDy=0;entryPerimeter=0;curved=1;" parent="1" source="UarH3_EtGsYHS9zNdw7b-5" target="UarH3_EtGsYHS9zNdw7b-4" edge="1">
          <mxGeometry relative="1" as="geometry">
            <Array as="points">
              <mxPoint x="437" y="216" />
            </Array>
          </mxGeometry>
        </mxCell>
        <mxCell id="UarH3_EtGsYHS9zNdw7b-13" value="&lt;b&gt;finishedReceivingBuffer&amp;nbsp;= 1&lt;/b&gt;" style="text;html=1;align=center;verticalAlign=middle;whiteSpace=wrap;rounded=0;rotation=0;fontSize=11;" parent="1" vertex="1">
          <mxGeometry x="240" y="175" width="156" height="30" as="geometry" />
        </mxCell>
        <mxCell id="UarH3_EtGsYHS9zNdw7b-15" value="&lt;b&gt;beginSendingData = 1&lt;/b&gt;&lt;div&gt;&lt;b&gt;&amp;amp;&amp;amp; plInSignal = 0&lt;/b&gt;&lt;/div&gt;" style="text;html=1;align=center;verticalAlign=middle;whiteSpace=wrap;rounded=0;rotation=0;fontSize=11;" parent="1" vertex="1">
          <mxGeometry x="222" y="314" width="140" height="30" as="geometry" />
        </mxCell>
        <mxCell id="UarH3_EtGsYHS9zNdw7b-23" value="&lt;b&gt;finishedSendingBuffer = 1&lt;/b&gt;" style="text;html=1;align=center;verticalAlign=middle;whiteSpace=wrap;rounded=0;rotation=0;fontSize=11;" parent="1" vertex="1">
          <mxGeometry x="194" y="415" width="140" height="30" as="geometry" />
        </mxCell>
        <mxCell id="UarH3_EtGsYHS9zNdw7b-25" value="&lt;b&gt;finishedReceivingBuffer = 0&lt;/b&gt;" style="text;html=1;align=center;verticalAlign=middle;whiteSpace=wrap;rounded=0;rotation=0;fontSize=11;" parent="1" vertex="1">
          <mxGeometry x="589" y="35" width="161" height="30" as="geometry" />
        </mxCell>
        <mxCell id="UarH3_EtGsYHS9zNdw7b-26" style="edgeStyle=orthogonalEdgeStyle;rounded=0;orthogonalLoop=1;jettySize=auto;html=1;exitX=1;exitY=0;exitDx=0;exitDy=0;entryX=1;entryY=0.5;entryDx=0;entryDy=0;curved=1;" parent="1" source="UarH3_EtGsYHS9zNdw7b-9" target="UarH3_EtGsYHS9zNdw7b-9" edge="1">
          <mxGeometry relative="1" as="geometry" />
        </mxCell>
        <mxCell id="UarH3_EtGsYHS9zNdw7b-27" value="&lt;b&gt;finishedSendingBuffer = 0&lt;/b&gt;" style="text;html=1;align=center;verticalAlign=middle;whiteSpace=wrap;rounded=0;rotation=0;fontSize=11;" parent="1" vertex="1">
          <mxGeometry x="604" y="335" width="140" height="30" as="geometry" />
        </mxCell>
        <mxCell id="UarH3_EtGsYHS9zNdw7b-30" style="edgeStyle=orthogonalEdgeStyle;rounded=0;orthogonalLoop=1;jettySize=auto;html=1;exitX=0;exitY=0.5;exitDx=0;exitDy=0;entryX=0.163;entryY=0.907;entryDx=0;entryDy=0;entryPerimeter=0;curved=1;" parent="1" source="UarH3_EtGsYHS9zNdw7b-4" target="UarH3_EtGsYHS9zNdw7b-4" edge="1">
          <mxGeometry relative="1" as="geometry" />
        </mxCell>
        <mxCell id="UarH3_EtGsYHS9zNdw7b-31" value="&lt;b&gt;plInSignal = 0&lt;/b&gt;&lt;div style=&quot;&quot;&gt;&lt;b&gt;&amp;amp;&amp;amp; beginSendingData = 0&lt;/b&gt;&lt;/div&gt;" style="text;html=1;align=center;verticalAlign=middle;whiteSpace=wrap;rounded=0;rotation=0;fontSize=11;" parent="1" vertex="1">
          <mxGeometry y="344" width="140" height="30" as="geometry" />
        </mxCell>
        <mxCell id="RLky8kwlP1VK3I4vdTKt-1" style="edgeStyle=orthogonalEdgeStyle;rounded=0;orthogonalLoop=1;jettySize=auto;html=1;exitX=1;exitY=0;exitDx=0;exitDy=0;entryX=1;entryY=0.5;entryDx=0;entryDy=0;curved=1;" edge="1" parent="1" source="UarH3_EtGsYHS9zNdw7b-5" target="UarH3_EtGsYHS9zNdw7b-5">
          <mxGeometry relative="1" as="geometry" />
        </mxCell>
      </root>
    </mxGraphModel>
  </diagram>
</mxfile>
